<svg version="1.1" xmlns="http://www.w3.org/2000/svg" xmlns:xlink="http://www.w3.org/1999/xlink" width="276.91105" height="276.82332" viewBox="0,0,276.91105,276.82332"><g transform="translate(-101.54448,-41.58834)"><g data-paper-data="{&quot;isPaintingLayer&quot;:true}" fill="#ffffff" fill-rule="nonzero" stroke="none" stroke-width="0.5" stroke-linecap="butt" stroke-linejoin="miter" stroke-miterlimit="10" stroke-dasharray="" stroke-dashoffset="0" style="mix-blend-mode: normal"><path d="M378.32761,212.88581c-8.19622,33.07688 -28.38325,61.92435 -56.85045,81.22838c-24.20878,16.42618 -51.8146,24.29748 -79.14569,24.29748c-44.86004,0 -88.98504,-21.20069 -116.18548,-60.59399c-21.1583,-30.65587 -29.04172,-67.65369 -22.19748,-104.17389c6.87409,-36.68935 27.76632,-68.49429 58.82366,-89.56001c17.22048,-11.6776 36.94678,-19.44291 57.05334,-22.451c1.95593,-0.28294 3.91229,0.80686 4.65988,2.6741c0.74369,1.86335 0.10989,3.99276 -1.53368,5.14616c-48.8316,34.26402 -61.05433,101.9852 -27.2424,150.96087c34.40377,49.84137 103.3082,62.62998 153.57181,28.5351c8.67385,-5.89375 15.87716,-12.53551 21.41614,-19.73883c1.25074,-1.62669 3.46884,-2.15062 5.31099,-1.25939c1.84172,0.88733 2.81342,2.94926 2.31935,4.93504z"/></g></g></svg>