<svg version="1.1" xmlns="http://www.w3.org/2000/svg" xmlns:xlink="http://www.w3.org/1999/xlink" width="173.75154" height="173.77108" viewBox="0,0,173.75154,173.77108"><g transform="translate(-153.12423,-93.11446)"><g data-paper-data="{&quot;isPaintingLayer&quot;:true}" fill="#000000" fill-rule="nonzero" stroke="none" stroke-linecap="butt" stroke-linejoin="miter" stroke-miterlimit="10" stroke-dasharray="" stroke-dashoffset="0" style="mix-blend-mode: normal"><path d="M202.17093,180c0,-20.89242 16.93665,-37.82906 37.82907,-37.82906c20.89242,0 37.82907,16.93665 37.82907,37.82906c0,20.89242 -16.93665,37.82907 -37.82907,37.82907c-20.89242,0 -37.82907,-16.93665 -37.82907,-37.82907z" stroke-width="0.5"/><g stroke-width="0"><g><g><path d="M282.79011,181.99633v-3.86839h44.08566v3.86839z"/><path d="M153.12423,181.87206v-3.86839h44.08566v3.86839z"/></g><g><path d="M238.24193,222.80056l3.86833,-0.02154l0.24544,44.08497l-3.86833,0.02154z"/><path d="M237.64429,93.136l3.86833,-0.02154l0.24544,44.08498l-3.86833,0.02154z"/></g></g><g><g><path d="M273.62506,153.4607l-2.53556,-2.92154l33.295,-28.89617l2.53556,2.92154z"/><path d="M175.6155,238.35701l-2.53556,-2.92154l33.295,-28.89617l2.53556,2.92154z"/></g><g><path d="M266.72609,213.47678l2.90738,-2.55178l29.08109,33.1336l-2.90738,2.55178z"/><path d="M181.28544,115.9414l2.90738,-2.55178l29.08109,33.1336l-2.90738,2.55178z"/></g></g></g></g></g></svg>